<?xml version="1.0" standalone="no"?>
<!DOCTYPE svg PUBLIC "-//W3C//DTD SVG 20010904//EN"
 "http://www.w3.org/TR/2001/REC-SVG-20010904/DTD/svg10.dtd">
<svg version="1.0" xmlns="http://www.w3.org/2000/svg"
 width="512.000000pt" height="512.000000pt" viewBox="0 0 512.000000 512.000000"
 preserveAspectRatio="xMidYMid meet">
<metadata>
Created by potrace 1.14, written by Peter Selinger 2001-2017
</metadata>
<g transform="translate(0.000000,512.000000) scale(0.100000,-0.100000)"
fill="#000000" stroke="none">
<path d="M1150 4404 c-179 -48 -270 -191 -270 -424 1 -182 53 -350 181 -577
l24 -41 -51 -54 c-83 -89 -159 -216 -180 -303 -7 -28 -3 -25 64 35 66 60 150
119 196 136 15 6 18 4 13 -9 -12 -33 -56 -274 -68 -377 -18 -157 -7 -362 25
-479 83 -298 220 -514 520 -819 175 -178 239 -232 163 -137 -275 343 -342 437
-436 616 -95 181 -141 324 -157 487 l-7 72 34 0 34 0 -3 192 c-5 293 27 460
126 652 49 95 145 224 187 252 40 26 22 28 -52 4 -96 -31 -163 -64 -233 -116
-33 -24 -60 -41 -60 -37 0 21 73 113 141 177 l78 74 -74 11 c-93 14 -174 44
-228 85 -88 66 -145 192 -133 290 7 50 48 136 66 136 5 0 6 -47 3 -108 -9
-167 15 -215 134 -270 89 -41 200 -58 290 -44 121 18 224 68 254 124 17 32
-11 61 -128 130 -137 82 -130 79 -243 87 l-95 6 48 24 c41 20 59 23 121 19 90
-6 159 -41 266 -135 140 -123 205 -135 464 -87 150 28 242 28 320 1 l39 -13
-74 -13 c-104 -17 -242 -65 -320 -111 -83 -49 -185 -157 -244 -257 -25 -43
-45 -82 -45 -87 0 -5 22 20 48 55 83 109 196 196 311 240 74 28 236 69 272 69
82 0 -19 -83 -161 -131 -138 -47 -187 -74 -262 -147 -71 -68 -83 -92 -26 -49
52 39 148 83 209 97 77 17 254 10 298 -13 31 -15 35 -15 65 0 45 25 220 30
309 9 72 -17 152 -53 206 -93 29 -22 32 -23 22 -5 -34 63 -171 153 -296 193
-121 38 -215 95 -215 130 0 32 236 -28 370 -93 67 -32 102 -59 166 -122 44
-45 91 -94 103 -111 13 -17 6 1 -14 40 -113 214 -286 333 -550 379 -78 13 -79
14 -50 26 62 26 191 24 345 -5 241 -45 299 -32 454 105 111 98 169 125 271
125 64 0 87 -4 110 -20 l30 -20 -95 -6 c-107 -6 -141 -20 -199 -79 -35 -36
-111 -165 -111 -188 0 -13 105 -58 168 -71 109 -23 217 -9 322 40 75 35 113
68 143 124 18 33 22 57 22 133 0 103 14 106 36 6 10 -45 9 -64 -5 -121 -40
-163 -170 -268 -347 -280 -44 -3 -78 -9 -77 -13 2 -4 26 -27 54 -51 57 -49 98
-95 137 -154 38 -56 34 -62 -15 -22 -60 49 -161 102 -242 126 -37 12 -72 21
-77 21 -5 0 12 -19 37 -42 58 -54 154 -199 193 -292 79 -191 107 -363 98 -603
-4 -83 -8 -158 -9 -165 -2 -9 10 -14 36 -16 l38 -3 -7 -67 c-19 -192 -88 -377
-229 -615 -58 -98 -95 -149 -261 -357 -72 -91 -135 -172 -140 -180 -19 -33
205 182 306 294 223 244 364 498 424 764 42 184 32 434 -29 702 -13 58 -22
107 -20 109 13 14 143 -71 230 -151 50 -46 54 -37 21 43 -34 81 -88 166 -151
236 -31 33 -56 66 -56 73 0 7 9 25 21 41 28 40 103 202 129 279 87 259 58 521
-69 632 -54 48 -135 80 -212 86 -140 10 -275 -37 -451 -155 -217 -147 -235
-149 -534 -71 l-199 53 -165 -1 -165 0 -197 -52 c-292 -77 -319 -74 -529 68
-227 154 -373 196 -529 154z m29 -148 c-37 -107 -25 -218 32 -297 12 -17 20
-32 17 -34 -2 -2 -24 11 -49 30 -110 80 -119 233 -19 333 18 18 34 32 35 30 2
-2 -5 -30 -16 -62z m2828 -13 c30 -51 40 -136 23 -187 -15 -45 -62 -101 -102
-122 l-29 -15 25 38 c14 21 32 58 41 82 25 71 21 123 -21 261 l-7 25 22 -20
c13 -11 34 -39 48 -62z"/>
<path d="M1800 3744 c-181 -121 -286 -391 -227 -584 26 -86 26 -86 88 -54 46
24 66 29 134 29 88 0 126 -14 183 -68 l32 -31 0 50 c1 246 110 411 323 490
l62 23 -56 0 c-137 2 -282 -79 -425 -235 -91 -99 -125 -124 -169 -124 -61 0
-96 50 -98 139 -1 70 28 137 116 264 35 51 67 98 71 105 10 17 -5 15 -34 -4z"/>
<path d="M3360 3716 c0 -4 9 -21 21 -37 11 -16 36 -64 56 -106 75 -162 51
-333 -47 -333 -48 0 -67 14 -180 129 -58 58 -131 124 -164 145 -80 53 -176 86
-251 85 l-60 0 64 -24 c153 -57 256 -167 298 -320 7 -27 16 -104 19 -170 l6
-120 -47 -24 c-82 -43 -150 -143 -174 -259 -17 -83 -14 -116 30 -287 37 -147
40 -169 37 -265 -3 -72 -9 -114 -20 -135 l-16 -30 -10 25 c-14 36 -44 60 -86
67 -43 7 -126 -30 -170 -76 l-29 -30 53 20 c96 36 181 10 135 -41 -34 -37 -96
-63 -166 -68 -59 -4 -68 -2 -81 16 -14 21 -14 21 -31 2 -33 -39 -175 -14 -233
41 -63 59 19 90 128 49 l53 -20 -40 36 c-56 50 -93 67 -146 68 -51 1 -83 -19
-101 -64 -10 -25 -10 -25 -25 15 -10 26 -15 77 -15 145 -1 90 5 124 37 245 45
167 49 253 16 355 -62 191 -239 283 -495 255 l-67 -7 6 -31 c12 -60 83 -192
130 -239 50 -51 131 -88 192 -88 l37 0 -50 25 c-84 43 -144 93 -165 138 -20
45 -25 87 -10 87 5 0 16 2 23 5 10 4 18 -7 27 -35 24 -82 77 -120 183 -135 70
-9 92 -41 83 -118 -3 -31 -13 -76 -21 -98 -7 -23 -14 -43 -14 -46 0 -11 24 13
62 60 23 29 38 43 33 32 -22 -54 -77 -259 -91 -340 -42 -240 48 -386 289 -465
99 -32 119 -58 120 -154 1 -88 -25 -156 -77 -204 -108 -99 -317 -100 -411 -2
l-28 29 49 -16 c30 -9 89 -16 149 -17 86 -1 106 2 142 21 23 13 44 26 47 31 2
4 -37 6 -88 4 -113 -5 -201 15 -268 61 -27 18 -48 35 -48 39 0 4 24 -1 54 -12
92 -31 195 -44 257 -31 84 18 91 28 23 36 -89 10 -201 42 -264 76 -69 37 -132
87 -125 100 17 26 198 2 284 -39 31 -14 61 -28 66 -30 33 -14 -79 84 -119 105
-52 26 -159 53 -217 53 l-35 0 8 83 c5 45 20 133 34 195 14 63 24 116 21 118
-2 2 -23 -41 -47 -96 -24 -55 -45 -100 -48 -100 -2 0 -1 26 3 58 11 94 -4 53
-20 -54 -23 -144 -31 -417 -15 -485 29 -122 104 -227 202 -279 44 -23 46 -26
40 -55 -4 -16 -7 -82 -7 -145 0 -108 2 -120 33 -192 19 -42 51 -96 72 -120
l39 -43 33 19 c98 57 110 61 203 61 50 0 98 -5 109 -11 14 -8 31 -8 64 2 95
29 208 12 278 -41 18 -14 39 -25 47 -25 42 0 128 160 147 272 11 65 9 149 -6
226 -4 23 0 30 35 50 90 50 156 128 194 230 19 50 21 76 20 222 0 97 -7 215
-17 285 -18 123 -32 171 -24 78 3 -29 3 -53 1 -53 -4 0 -76 152 -94 199 -17
42 -19 17 -4 -39 23 -84 55 -269 55 -315 l0 -41 -85 -11 c-106 -15 -190 -52
-246 -109 -24 -24 -41 -44 -37 -44 3 0 25 11 49 25 25 13 74 31 109 39 72 17
186 21 195 7 8 -14 -71 -75 -142 -110 -92 -46 -164 -62 -309 -68 l-131 -6 -7
28 c-11 42 4 114 30 144 15 18 51 38 101 56 135 47 222 117 266 214 40 88 24
265 -44 477 -16 50 -29 94 -29 98 0 4 26 -21 57 -55 32 -33 59 -56 61 -49 2 6
-10 43 -28 81 -43 94 -48 136 -21 171 16 20 34 29 69 34 101 14 168 66 187
145 5 21 11 25 31 21 30 -6 30 -23 0 -87 -25 -55 -93 -121 -159 -155 l-42 -22
57 5 c119 11 222 104 283 255 31 77 32 98 3 106 -59 15 -252 3 -312 -20 -13
-5 -8 7 18 44 45 62 98 110 132 118 41 10 107 -1 169 -30 67 -30 66 -31 92 54
48 162 -18 389 -151 520 -25 24 -46 41 -46 36z m-1430 -808 c0 -17 7 -40 17
-50 20 -23 75 -24 109 -1 23 15 26 15 42 -1 23 -23 6 -47 -46 -66 -37 -13 -47
-13 -84 0 -50 18 -88 68 -88 116 0 30 3 34 25 34 21 0 25 -5 25 -32z m68 15
c5 -17 -26 -29 -40 -15 -6 6 -7 15 -3 22 9 14 37 9 43 -7z m1180 0 c5 -17 -26
-29 -40 -15 -6 6 -7 15 -3 22 9 14 37 9 43 -7z m74 -18 c-11 -102 -124 -156
-209 -100 l-25 17 20 21 c20 19 22 19 46 4 26 -18 73 -22 92 -9 18 11 34 49
34 77 0 22 4 26 23 23 18 -2 21 -8 19 -33z m-93 -1371 c-51 -62 -171 -98 -305
-92 -51 2 -90 0 -88 -4 3 -5 24 -18 47 -31 36 -19 56 -22 142 -21 60 1 119 8
149 17 l48 16 -23 -25 c-43 -46 -125 -78 -199 -78 -143 2 -250 70 -285 183 -6
21 -5 23 17 18 13 -4 77 -11 142 -17 129 -12 210 -5 306 29 30 10 57 19 59 20
2 0 -3 -6 -10 -15z m-523 -245 c134 -24 260 -118 285 -212 13 -49 8 -162 -8
-178 -8 -8 -24 -7 -60 4 -138 45 -348 54 -498 22 -143 -30 -130 -32 -143 13
-48 160 53 306 240 347 79 17 110 18 184 4z"/>
<path d="M2455 3546 c-104 -33 -178 -89 -236 -178 -55 -86 -72 -163 -67 -300
5 -129 27 -200 28 -88 1 176 81 325 208 387 47 23 73 28 153 31 256 11 392
-123 417 -409 l8 -84 13 71 c9 45 12 108 9 167 -4 79 -10 106 -36 161 -53 114
-159 207 -271 240 -65 19 -170 20 -226 2z"/>
<path d="M1392 3028 c-36 -124 -47 -207 -47 -368 0 -167 13 -259 52 -385 58
-183 209 -421 317 -498 l31 -22 -23 35 c-98 148 -136 316 -79 352 25 16 76 8
106 -18 17 -14 31 -23 31 -19 0 15 -31 62 -57 87 -32 30 -128 78 -158 78 -54
1 -62 9 -93 103 -53 158 -57 191 -56 470 1 141 0 257 -1 257 -1 0 -12 -33 -23
-72z"/>
<path d="M3714 2922 c11 -210 -1 -365 -39 -496 -34 -116 -49 -144 -83 -151
-78 -16 -132 -38 -170 -71 -42 -36 -79 -91 -68 -102 3 -3 6 -1 6 4 0 19 80 56
105 50 37 -9 48 -40 43 -115 -5 -67 -46 -171 -100 -251 l-23 -35 39 30 c123
93 273 347 325 549 44 169 50 404 16 584 -16 82 -42 169 -53 176 -4 2 -3 -75
2 -172z"/>
<path d="M917 2888 c-77 -109 -124 -216 -153 -353 -44 -207 -19 -518 63 -780
l25 -79 18 46 c18 48 60 122 66 116 1 -2 19 -41 38 -86 105 -246 307 -531 452
-640 70 -52 191 -118 200 -109 3 3 1 22 -5 44 -6 21 -11 48 -11 60 0 21 2 20
55 -11 52 -32 242 -102 251 -93 3 3 -17 20 -44 39 -128 92 -252 225 -340 362
l-56 88 -19 -56 c-10 -31 -23 -56 -27 -56 -12 0 -125 172 -189 287 -82 147
-200 442 -223 558 -3 16 -11 8 -35 -34 l-31 -53 -13 73 c-10 50 -14 151 -13
314 1 203 4 254 21 330 11 50 19 91 18 93 -2 2 -23 -25 -48 -60z"/>
<path d="M4164 2924 c37 -145 40 -174 41 -404 0 -157 -5 -259 -14 -309 l-13
-74 -31 53 -30 52 -23 -78 c-61 -212 -190 -490 -309 -669 -93 -140 -88 -137
-110 -65 -10 33 -21 60 -25 60 -3 0 -15 -19 -27 -42 -55 -113 -248 -326 -373
-412 -54 -37 -54 -37 -20 -31 60 12 189 63 241 94 48 30 49 31 49 8 0 -12 -5
-39 -11 -60 -6 -22 -8 -41 -5 -44 9 -10 162 77 222 127 123 100 270 304 385
533 38 76 69 144 69 152 0 49 54 -17 84 -103 l13 -37 26 82 c37 114 64 256 78
398 27 283 -24 517 -156 715 -54 81 -71 97 -61 54z"/>
<path d="M1480 2747 c0 -170 48 -302 148 -407 l54 -55 -27 45 c-64 109 -79
152 -80 230 0 62 4 80 23 107 12 17 22 33 22 36 0 2 -17 16 -38 31 -21 14 -49
44 -62 66 -14 22 -28 40 -32 40 -5 0 -8 -42 -8 -93z"/>
<path d="M3615 2803 c-11 -21 -39 -51 -61 -69 l-42 -31 22 -34 c34 -55 30
-155 -11 -242 -18 -38 -42 -82 -54 -98 -36 -52 -14 -42 39 16 62 68 107 157
127 250 15 73 21 245 8 245 -5 0 -17 -17 -28 -37z"/>
</g>
</svg>
